<?xml version="1.0" encoding="utf-8"?>
<!-- Generator: Adobe Illustrator 26.1.0, SVG Export Plug-In . SVG Version: 6.00 Build 0)  -->
<svg version="1.1" id="Layer_1" xmlns="http://www.w3.org/2000/svg" xmlns:xlink="http://www.w3.org/1999/xlink" x="0px" y="0px"
	 viewBox="0 0 392 359" style="enable-background:new 0 0 392 359;" xml:space="preserve">
<style type="text/css">
	.st0{fill:#FFFFFF;}
	.st1{fill:#F7F7F7;}
</style>
<g>
	<path class="st0" d="M230.8,81.5h136.5c13.4,0,24.2,10.9,24.2,24.2v89.5c0,13.4-10.9,24.2-24.2,24.2H230.8
		c-13.4,0-24.2-10.9-24.2-24.2v-89.5C206.5,92.4,217.4,81.5,230.8,81.5z"/>
	<path class="st1" d="M391,82v112.8c0,13.4-10.9,24.2-24.2,24.2H231.2c-13.4,0-24.2-10.9-24.2-24.2v-88.5
		c0-13.4,10.9-24.2,24.2-24.2H391 M392,81H230.2c-13.4,0-24.2,10.9-24.2,24.2v90.5c0,13.4,10.9,24.2,24.2,24.2h137.5
		c13.4,0,24.2-10.9,24.2-24.2L392,81L392,81z"/>
	<path class="st0" d="M17.2,165.5h143.5c9.3,0,16.8,7.5,16.8,16.8v129.5c0,9.3-7.5,16.8-16.8,16.8H17.2c-9.3,0-16.8-7.5-16.8-16.8
		V182.2C0.5,173,8,165.5,17.2,165.5z"/>
	<path class="st0" d="M177,166v162H1V166H177 M178,165H0v164h178V165z"/>
	<path class="st0" d="M74.8,27.5h88.5c7.9,0,14.2,6.4,14.2,14.2v79.5c0,7.9-6.4,14.2-14.2,14.2H74.8c-7.9,0-14.2-6.4-14.2-14.2V41.8
		C60.5,33.9,66.9,27.5,74.8,27.5z"/>
	<path class="st0" d="M177,28v107H61V28H177 M178,27H60v109h118V27z"/>
	<path class="st0" d="M223.2,0.5h79.5c9.3,0,16.8,7.5,16.8,16.8v25.5c0,9.3-7.5,16.8-16.8,16.8h-79.5c-9.3,0-16.8-7.5-16.8-16.8
		V17.2C206.5,8,214,0.5,223.2,0.5z"/>
	<path class="st0" d="M319,1v58H207V1H319 M320,0H206v60h114V0z"/>
	<path class="st0" d="M223.2,245.5h79.5c9.3,0,16.8,7.5,16.8,16.8v79.5c0,9.3-7.5,16.8-16.8,16.8h-79.5c-9.3,0-16.8-7.5-16.8-16.8
		v-79.5C206.5,253,214,245.5,223.2,245.5z"/>
	<path class="st0" d="M319,246v112H207V246H319 M320,245H206v114h114V245z"/>
</g>
</svg>
